# xmcd CD database file
#
# Track frame offsets:
#	150
#	22440
#	44560
#	66610
#	89166
#	111696
#	133727
#	156511
#	178164
#	201650
#	224759
#	245261
#	268506
#	290612
#	312752
#	334418
#
# Disc length: 4716 seconds
#
# Revision: 5
# Processed by: cddbd v1.5.2PL0 Copyright (c) Steve Scherf et al.
# Submitted via: CDex 1.70beta2
#
DISCID=22126a10
DTITLE=Lorentz, Iny - Die Löwin
DYEAR=2006
DGENRE=Hörbuch
TTITLE0=34 Die Löwin
TTITLE1=35 Die Löwin
TTITLE2=36 Die Löwin
TTITLE3=37 Die Löwin
TTITLE4=38 Die Löwin
TTITLE5=39 Die Löwin
TTITLE6=40 Die Löwin
TTITLE7=41 Die Löwin
TTITLE8=42 Die Löwin
TTITLE9=43 Die Löwin
TTITLE10=44 Die Löwin
TTITLE11=45 Die Löwin
TTITLE12=46 Die Löwin
TTITLE13=47 Die Löwin
TTITLE14=48 Die Löwin
TTITLE15=49 Die Löwin
EXTD=YEAR: 2006
EXTT0=
EXTT1=
EXTT2=
EXTT3=
EXTT4=
EXTT5=
EXTT6=
EXTT7=
EXTT8=
EXTT9=
EXTT10=
EXTT11=
EXTT12=
EXTT13=
EXTT14=
EXTT15=
PLAYORDER=
